<svg xmlns:dc="http://purl.org/dc/elements/1.1/" xmlns:cc="http://creativecommons.org/ns#" xmlns:rdf="http://www.w3.org/1999/02/22-rdf-syntax-ns#" xmlns:svg="http://www.w3.org/2000/svg" xmlns="http://www.w3.org/2000/svg" height="207" width="502" xml:space="preserve" version="1.1" style=""><rect id="backgroundrect" width="100%" height="100%" x="0" y="0" fill="none" stroke="none" class="" style=""/><metadata id="metadata8"><rdf:RDF><cc:Work rdf:about=""><dc:format>image/svg+xml</dc:format><dc:type rdf:resource="http://purl.org/dc/dcmitype/StillImage"/></cc:Work></rdf:RDF></metadata><defs id="defs6"/><g class="currentLayer" style=""><title>Layer 1</title><path id="path14" style="fill:#ec008c;fill-opacity:1;fill-rule:nonzero;stroke:none" d="M0.2220001220703128,8.97301333243172 H102.69799908718169 V50.21701291591512 H47.812132974798544 V87.02101254423758 H93.17986584997044 V125.0930121597545 H47.812132974798544 V207.58234466004126 H0.2220001220703128 v-198.60933132760962 " stroke-width="0" class=""/><path id="path16" style="fill:#ec008c;fill-opacity:1;fill-rule:nonzero;stroke:none" d="M111.89026566101711,8.97301333243172 H159.47933184708947 V166.65701174000628 h49.17733283669936 V207.58234466004126 H111.89026566101711 v-198.60933132760962 " stroke-width="0" class=""/><path id="path18" style="fill:#ec008c;fill-opacity:1;fill-rule:nonzero;stroke:none" d="m216.5819979370855,64.81167943519267 h44.41999955140957 V207.58234466004126 H216.5819979370855 v-142.77066522484867 " stroke-width="0" class=""/><path id="path20" style="fill:#ec008c;fill-opacity:1;fill-rule:nonzero;stroke:none" d="m333.0139967612575,100.66101240648925 c15.230666512854615,0 16.179999836600782,-4.7586666186096584 16.179999836600782,-19.34933313792753 v-13.643999862211441 c0,-13.958666525700338 -0.9493333237461675,-20.30399979495317 -16.49599983340955,-20.30399979495317 h-12.055999878248397 v53.297332795092146 zm-59.961332727793476,-91.68799907405764 h59.32666606753621 c40.29333292641744,0 64.40533268291423,8.250666583344513 64.40533268291423,59.647999397624446 v10.46933322760522 c0,51.394666147640194 -24.74666641675406,59.64266606434497 -64.40533268291423,59.64266606434497 h-11.737333214799893 v68.849332638035 h-47.58933285273632 v-198.60933132760962 " stroke-width="0" class=""/><path id="path22" style="fill:#fff200;fill-opacity:1;fill-rule:nonzero;stroke:none" d="m264.96599744846327,26.838346485345824 c0,14.455999854011182 -11.718666548321737,26.173333069013054 -26.173333069013054,26.173333069013054 c-14.455999854011182,0 -26.173333069013054,-11.717333215001869 -26.173333069013054,-26.173333069013054 c0,-14.453333187371447 11.717333215001869,-26.170666402373318 26.173333069013054,-26.170666402373318 c14.454666520691314,0 26.173333069013054,11.717333215001869 26.173333069013054,26.170666402373318 " stroke-width="0" class=""/><path id="path24" style="fill:#80cc28;fill-opacity:1;fill-rule:nonzero;stroke:none" d="m465.0219954281299,206.554344670423 v-3.7053332959137677 c14.449333187411842,-3.0199999695015056 29.913333031243393,-10.198666563671972 29.913333031243393,-20.323999794751195 c0,-5.290666613237075 -4.1813332911067205,-10.959999889316725 -14.32399985534423,-10.959999889316725 c-7.478666591140816,0 -11.281333219404964,2.4959999747932975 -13.18133320021717,8.162666584233211 l-2.535999974389344,7.7093332554780165 c-4.4359999552015505,13.675999861888275 -16.605333165638744,19.11733314027046 -29.53466636840082,19.11733314027046 c-19.51999980287066,0 -28.89999970814355,-9.294666572801322 -28.89999970814355,-20.025333131100716 c0,-4.837333284481883 2.2839999769342514,-9.219999906888704 6.971999929590894,-13.223999866452953 l-6.2106666039461444,-4.0813332921166054 v-3.249333300518839 l33.46266632873258,-0.9839999900627423 v3.7799999618263884 c-13.562666529699479,2.7946666384437777 -27.37866639017392,9.369333238713944 -27.37866639017392,18.738666477427888 c0,4.837333284481883 3.929333293651628,10.430666561329042 13.054666534829689,10.430666561329042 c5.45199994494113,0 10.397333228332338,-1.7386666491081517 12.677333205306985,-8.387999915290937 l3.295999966714226,-9.37199990535368 c4.4359999552015505,-12.465333207447937 14.19733318995675,-17.679999821452526 29.913333031243393,-17.679999821452526 c15.463999843831553,0 29.531999701761087,6.9506665964730034 29.531999701761087,19.72266646749063 c0,6.121333271514973 -2.9119999705921806,11.483999884024932 -8.49066658092079,15.639999842054156 l7.858666587303256,4.762666618569262 v3.322666633111591 L465.0219954281299,206.554344670423 " stroke-width="0" class=""/><path id="path26" style="fill:#80cc28;fill-opacity:1;fill-rule:nonzero;stroke:none" d="m493.03399514524125,157.81034516268073 v-3.322666633111591 c0,-4.082666625436473 -1.521333317969633,-4.534666620871797 -6.337333269333624,-4.534666620871797 h-65.1533326753603 c-4.817333284683859,0 -6.337333269333624,0.45199999543532476 -6.337333269333624,4.534666620871797 v3.322666633111591 h-6.8439999308835455 v-29.166666372117195 h6.8439999308835455 v3.3253332997513274 c0,4.079999958796737 1.5199999846497647,4.531999954232061 6.337333269333624,4.531999954232061 h65.1533326753603 c4.815999951363991,0 6.337333269333624,-0.45199999543532476 6.337333269333624,-4.531999954232061 v-3.3253332997513274 h6.845333264203414 v29.166666372117195 h-6.845333264203414 " stroke-width="0" class=""/><path id="path28" style="fill:#80cc28;fill-opacity:1;fill-rule:nonzero;stroke:none" d="m486.18999521435774,101.95634573936479 c5.449333278301393,0 6.8439999308835455,-0.9826666567428741 6.8439999308835455,-6.045333272282486 c0,-8.993333242511108 -6.591999933428452,-16.246666502594195 -38.405332945484055,-16.246666502594195 c-33.085332999209875,0 -39.4226662685435,7.103999928257847 -39.4226662685435,16.54933316620428 c0,5.290666613237075 2.4079999756819954,5.7426666086724 7.605333256528295,5.7426666086724 zm6.8439999308835455,21.310666451453674 v-3.3253332997513274 c0,-4.0813332921166054 -1.521333317969633,-4.534666620871797 -6.337333269333624,-4.534666620871797 h-65.1533326753603 c-4.817333284683859,0 -6.337333269333624,0.4533333287551925 -6.337333269333624,4.534666620871797 v3.3253332997513274 h-6.8439999308835455 v-31.13466635224268 c0,-18.587999812282778 19.2666664720957,-27.427999723009044 44.742666214817675,-27.427999723009044 c30.675999690208013,0 46.774666194296834,10.651999892427167 46.774666194296834,27.427999723009044 v31.13466635224268 h-6.845333264203414 " stroke-width="0" class=""/><path id="path30" style="fill:#80cc28;fill-opacity:1;fill-rule:nonzero;stroke:none" d="m493.03399514524125,63.31634612958396 v-3.3253332997513274 c0,-4.079999958796737 -1.521333317969633,-4.53333328755193 -6.337333269333624,-4.53333328755193 h-65.1533326753603 c-4.817333284683859,0 -6.337333269333624,0.4533333287551925 -6.337333269333624,4.53333328755193 v3.3253332997513274 h-6.8439999308835455 v-50.70399948794846 l33.21066633127749,-0.5293333279876801 v3.77866662850652 c-18.509333146410555,3.249333300518839 -26.366666400393942,7.027999929025359 -26.366666400393942,19.11733314027046 c0,5.8186666079048885 1.7746666487445937,7.027999929025359 8.999999909110448,7.027999929025359 h24.71866641703683 v-1.4346666521781988 c0,-6.197333270747461 -7.227999927005591,-9.749333234876385 -18.253333148995857,-10.505333227241664 v-3.929333293651628 l44.49199955068245,-0.2999999969703488 v4.229333290621977 c-11.663999882207142,0.22799999769746548 -19.39466647080305,4.610666620104285 -19.39466647080305,11.033333221909476 v0.9066666575103868 h29.02666637353103 c6.970666596271026,0 8.238666583465697,-0.6039999939003022 8.238666583465697,-8.387999915290937 c0,-10.87999989012463 -8.870666577083231,-15.414666510996428 -27.37866639017392,-18.587999812282778 l0.5079999948697906,-3.77866662850652 l33.715999659507546,0.8306666582778987 v51.233332815936144 h-6.845333264203414 " stroke-width="0" class=""/></g></svg>